<svg xmlns="http://www.w3.org/2000/svg" width="1440" height="900" viewBox="0 0 1440 900">
  <style>
    text{font-family:Inter,'Microsoft YaHei',sans-serif;fill:#25282d}.small{font-size:13px;fill:#707680}.label{font-size:14px}.title{font-size:26px;font-weight:700}.h2{font-size:17px;font-weight:700}.metric{font-size:30px;font-weight:700}.white{fill:#fff}.side{fill:#cdd1d7}.line{stroke:#d9dce0;stroke-width:1}.card{fill:#fff;stroke:#d4d7db;stroke-width:1}.pill{fill:#f2f3f5;stroke:#c8ccd1}.navactive{fill:#3b3f46}.navtext{fill:#d5d9df;font-size:14px}.brand{fill:#fff;font-size:19px;font-weight:700}
  </style>
  <rect width="1440" height="900" fill="#f2f3f5"/>
  <rect width="230" height="900" fill="#25282d"/>
  <text x="28" y="42" class="brand">OCA-Duplex</text><text x="28" y="64" class="navtext" opacity=".65">Codex × Obsidian</text>
  <rect x="16" y="96" width="198" height="42" rx="8" class="navactive"/>
  <text x="32" y="122" class="navtext">总览</text><text x="32" y="168" class="navtext">项目</text><text x="32" y="212" class="navtext">原始对话</text><text x="32" y="256" class="navtext">学习总结</text><text x="32" y="300" class="navtext">知识库</text><text x="32" y="344" class="navtext">活动记录</text><text x="32" y="388" class="navtext">设置</text>
  <rect x="16" y="760" width="198" height="94" rx="10" fill="none" stroke="#4b5059"/><circle cx="32" cy="786" r="5" fill="#8ea893"/><text x="46" y="791" class="navtext">系统运行中</text><text x="32" y="820" class="navtext" opacity=".65">安全模式 · 4 个授权项目</text>
  <line x1="1120" y1="0" x2="1120" y2="900" class="line"/>
  <text x="262" y="54" class="title">知识工作台</text><text x="262" y="78" class="small">清楚看到读取了什么、写入了什么、哪些需要确认</text>
  <rect x="898" y="33" width="94" height="38" rx="8" class="card"/><text x="913" y="57" class="label">打开 Obsidian</text><rect x="1002" y="33" width="90" height="38" rx="8" fill="#34383f"/><text x="1020" y="57" class="navtext">立即同步</text>
  <g transform="translate(262 110)"><rect width="195" height="108" rx="12" class="card"/><text x="18" y="31" class="small">授权项目</text><text x="18" y="75" class="metric">4</text></g>
  <g transform="translate(469 110)"><rect width="195" height="108" rx="12" class="card"/><text x="18" y="31" class="small">本周新对话</text><text x="18" y="75" class="metric">12</text></g>
  <g transform="translate(676 110)"><rect width="195" height="108" rx="12" class="card"/><text x="18" y="31" class="small">候选知识</text><text x="18" y="75" class="metric">6</text></g>
  <g transform="translate(883 110)"><rect width="209" height="108" rx="12" class="card"/><text x="18" y="31" class="small">待处理冲突</text><text x="18" y="75" class="metric">2</text></g>
  <rect x="262" y="234" width="548" height="430" rx="12" class="card"/><text x="282" y="268" class="h2">最近读取的项目</text><text x="282" y="291" class="small">仅显示已授权的工作目录</text>
  <line x1="282" y1="324" x2="790" y2="324" class="line"/><text x="282" y="315" class="small">项目</text><text x="420" y="315" class="small">目录</text><text x="625" y="315" class="small">最近同步</text><text x="730" y="315" class="small">状态</text>
  <text x="282" y="360" class="label">OCA-Duplex</text><text x="420" y="360" class="small">D:\知识库</text><text x="625" y="360" class="small">刚刚</text><rect x="724" y="340" width="64" height="27" rx="13" class="pill"/><text x="736" y="358" class="small">已同步</text>
  <line x1="282" y1="383" x2="790" y2="383" class="line"/><text x="282" y="421" class="label">AI 漫剧</text><text x="420" y="421" class="small">D:\AI漫剧</text><text x="625" y="421" class="small">18 分钟前</text><rect x="704" y="401" width="84" height="27" rx="13" class="pill"/><text x="714" y="419" class="small">3 项待确认</text>
  <line x1="282" y1="444" x2="790" y2="444" class="line"/><text x="282" y="482" class="label">个人网站</text><text x="420" y="482" class="small">D:\Sites\Portfolio</text><text x="625" y="482" class="small">昨天</text><rect x="724" y="462" width="64" height="27" rx="13" class="pill"/><text x="736" y="480" class="small">已同步</text>
  <rect x="824" y="234" width="268" height="430" rx="12" class="card"/><text x="844" y="268" class="h2">最近写入</text><text x="844" y="291" class="small">每一步都有审计记录</text>
  <circle cx="850" cy="337" r="5" fill="#737982"/><text x="868" y="336" class="label">更新学习总结</text><text x="868" y="357" class="small">OCA-Duplex · 1 分钟前</text><circle cx="850" cy="402" r="5" fill="#737982"/><text x="868" y="401" class="label">新增候选知识</text><text x="868" y="422" class="small">目录语言迁移规则 · 2 分钟前</text><circle cx="850" cy="467" r="5" fill="#737982"/><text x="868" y="466" class="label">追加原始对话</text><text x="868" y="487" class="small">Codex 任务 019f4ab6</text><circle cx="850" cy="532" r="5" fill="#737982"/><text x="868" y="531" class="label">发现知识冲突</text><text x="868" y="552" class="small">安全模式说明 · 7 分钟前</text>
  <text x="1150" y="54" class="h2">OCA-Duplex</text><line x1="1144" y1="84" x2="1416" y2="84" class="line"/><text x="1144" y="112" class="small">工作目录</text><text x="1144" y="139" class="label">D:\知识库</text><line x1="1144" y1="164" x2="1416" y2="164" class="line"/><text x="1144" y="193" class="small">写入结构</text><text x="1144" y="222" class="h2">项目/OCA-Duplex</text><text x="1160" y="253" class="label">原始对话</text><text x="1160" y="281" class="label">学习总结</text><text x="1160" y="309" class="label">知识库</text><text x="1160" y="337" class="label">提示词</text><text x="1160" y="365" class="label">输出成果</text><text x="1160" y="393" class="label">决策记录</text><text x="1160" y="421" class="label">同步记录</text><line x1="1144" y1="450" x2="1416" y2="450" class="line"/><text x="1144" y="480" class="small">最近事务</text><text x="1144" y="508" class="label">tx_8f21… · complete</text><rect x="1144" y="548" width="272" height="42" rx="8" fill="#34383f"/><text x="1215" y="574" class="navtext">在 Obsidian 中打开</text>
</svg>
